# xmcd
#
# Track frame offsets: 
#        150
#        20119
#        39937
#        58637
#        78534
#        98219
#        114395
#        133130
#        153815
#        171377
#        195856
#        212836
#        231845
#        256281
#
# Disc length: 3671 seconds
#
# Revision: 2
# Processed by: cddbd v1.5.2PL0 Copyright (c) Steve Scherf et al.
# Submitted via: ExactAudioCopyFreeDBPlugin 1.0
#
DISCID=b80e550e
DTITLE=Danielle Nicole - Cry No More
DYEAR=2018
DGENRE=Blues
TTITLE0=Crawl (feat. Nick Schnebelen)
TTITLE1=I'm Going Home (feat. Sonny Landreth and Mike Finnigan)
TTITLE2=Hot Spell
TTITLE3=Burnin' For You (feat. Walter Trout and Mike Finnigan)
TTITLE4=Cry No More (feat.Mike Finnigan)
TTITLE5=Poison The Well (feat. Kelly Finnigan)
TTITLE6=Bobby
TTITLE7=Save Me (feat. Kenny Wayne Shepherd)
TTITLE8=How Come U Don't Call Me Anymore (feat. ''Monster'' Mike Welch
TTITLE8=)
TTITLE9=Baby Eyes
TTITLE10=Pusher Man (feat. Kelly Finnigan)
TTITLE11=My Heart Remains (feat. ''Monster'' Mike Welch)
TTITLE12=Someday You Might Change Your Mind (duet with Kelly Finnigan)
TTITLE13=Lord I Just Can't Keep From Crying (feat. Luther Dickinson)
EXTD=
EXTT0=
EXTT1=
EXTT2=
EXTT3=
EXTT4=
EXTT5=
EXTT6=
EXTT7=
EXTT8=
EXTT9=
EXTT10=
EXTT11=
EXTT12=
EXTT13=
PLAYORDER=
